<svg width="679" height="146" viewBox="0 0 679 146" fill="none" xmlns="http://www.w3.org/2000/svg">
<path d="M48.784 64V25.856H36.24V19.2H68.624V25.856H55.696V64H48.784ZM75.483 64V16.64H82.075V37.312L80.923 38.08C81.3497 36.5867 82.1817 35.2213 83.419 33.984C84.6563 32.704 86.1283 31.68 87.835 30.912C89.5417 30.1013 91.291 29.696 93.083 29.696C95.643 29.696 97.7763 30.208 99.483 31.232C101.19 32.2133 102.47 33.728 103.323 35.776C104.176 37.824 104.603 40.4053 104.603 43.52V64H98.011V43.968C98.011 42.048 97.755 40.4693 97.243 39.232C96.731 37.952 95.9417 37.0347 94.875 36.48C93.8083 35.8827 92.4857 35.6267 90.907 35.712C89.627 35.712 88.4537 35.9253 87.387 36.352C86.3203 36.736 85.3817 37.2907 84.571 38.016C83.803 38.7413 83.1843 39.5947 82.715 40.576C82.2883 41.5147 82.075 42.5387 82.075 43.648V64H78.811C78.2563 64 77.7017 64 77.147 64C76.5923 64 76.0377 64 75.483 64ZM129.226 64.64C125.77 64.64 122.698 63.9147 120.01 62.464C117.364 60.9707 115.274 58.944 113.738 56.384C112.244 53.824 111.498 50.88 111.498 47.552C111.498 44.9067 111.924 42.496 112.778 40.32C113.631 38.144 114.804 36.2667 116.298 34.688C117.834 33.0667 119.647 31.8293 121.738 30.976C123.871 30.08 126.175 29.632 128.65 29.632C130.826 29.632 132.852 30.0587 134.73 30.912C136.607 31.7227 138.228 32.8533 139.594 34.304C141.002 35.7547 142.068 37.4827 142.794 39.488C143.562 41.4507 143.924 43.6053 143.882 45.952L143.818 48.768H116.362L114.89 43.52H138.122L137.162 44.608V43.072C137.034 41.664 136.564 40.4053 135.754 39.296C134.943 38.1867 133.919 37.312 132.682 36.672C131.444 36.032 130.1 35.712 128.65 35.712C126.346 35.712 124.404 36.16 122.826 37.056C121.247 37.9093 120.052 39.1893 119.242 40.896C118.431 42.56 118.026 44.6293 118.026 47.104C118.026 49.4507 118.516 51.4987 119.498 53.248C120.479 54.9547 121.866 56.2773 123.658 57.216C125.45 58.1547 127.519 58.624 129.866 58.624C131.53 58.624 133.066 58.3467 134.474 57.792C135.924 57.2373 137.482 56.2347 139.146 54.784L142.474 59.456C141.45 60.48 140.191 61.376 138.698 62.144C137.247 62.912 135.69 63.5307 134.026 64C132.404 64.4267 130.804 64.64 129.226 64.64ZM170.647 64V19.2H177.559V57.344H198.551V64H170.647ZM218.974 64.64C216.2 64.64 213.662 63.872 211.358 62.336C209.096 60.8 207.283 58.7093 205.918 56.064C204.552 53.4187 203.87 50.432 203.87 47.104C203.87 43.7333 204.552 40.7467 205.918 38.144C207.326 35.4987 209.203 33.4293 211.55 31.936C213.939 30.4427 216.606 29.696 219.55 29.696C221.299 29.696 222.899 29.952 224.35 30.464C225.8 30.976 227.059 31.7013 228.126 32.64C229.235 33.536 230.131 34.5813 230.814 35.776C231.539 36.9707 231.987 38.2507 232.158 39.616L230.686 39.104V30.4H237.342V64H230.686V56L232.222 55.552C231.966 56.704 231.432 57.8347 230.622 58.944C229.854 60.0107 228.851 60.9707 227.614 61.824C226.419 62.6773 225.075 63.36 223.582 63.872C222.131 64.384 220.595 64.64 218.974 64.64ZM220.702 58.56C222.707 58.56 224.478 58.0693 226.014 57.088C227.55 56.1067 228.744 54.7627 229.598 53.056C230.494 51.3067 230.942 49.3227 230.942 47.104C230.942 44.928 230.494 42.9867 229.598 41.28C228.744 39.5733 227.55 38.2293 226.014 37.248C224.478 36.2667 222.707 35.776 220.702 35.776C218.739 35.776 216.99 36.2667 215.454 37.248C213.96 38.2293 212.766 39.5733 211.87 41.28C211.016 42.9867 210.59 44.928 210.59 47.104C210.59 49.3227 211.016 51.3067 211.87 53.056C212.766 54.7627 213.96 56.1067 215.454 57.088C216.99 58.0693 218.739 58.56 220.702 58.56ZM245.138 64V58.496L262.482 35.328V36.096H245.138V30.4H269.65V35.776L252.562 58.624L252.306 58.304H270.034V64H245.138ZM283.178 78.72L289.962 63.04L290.026 68.288L273.258 30.4H280.938L291.434 55.104C291.647 55.5307 291.903 56.192 292.202 57.088C292.5 57.9413 292.756 58.7947 292.97 59.648L291.306 60.032C291.647 59.136 291.967 58.24 292.266 57.344C292.607 56.448 292.927 55.552 293.226 54.656L301.994 30.4H309.802L295.978 64L290.282 78.72H283.178ZM334.335 64V19.2H351.871C355.071 19.2 357.951 19.7333 360.511 20.8C363.113 21.8667 365.332 23.4027 367.167 25.408C369.001 27.4133 370.409 29.7813 371.391 32.512C372.372 35.2427 372.863 38.272 372.863 41.6C372.863 44.928 372.372 47.9787 371.391 50.752C370.409 53.4827 369.001 55.8507 367.167 57.856C365.375 59.8187 363.177 61.3333 360.575 62.4C357.972 63.4667 355.071 64 351.871 64H334.335ZM341.247 58.048L341.055 57.344H351.551C353.812 57.344 355.817 56.9813 357.567 56.256C359.359 55.5307 360.852 54.5067 362.047 53.184C363.284 51.8187 364.223 50.1547 364.863 48.192C365.503 46.2293 365.823 44.032 365.823 41.6C365.823 39.168 365.503 36.992 364.863 35.072C364.223 33.1093 363.284 31.4453 362.047 30.08C360.809 28.7147 359.316 27.6693 357.567 26.944C355.817 26.2187 353.812 25.856 351.551 25.856H340.863L341.247 25.28V58.048ZM396.226 64.64C392.77 64.64 389.698 63.9147 387.01 62.464C384.364 60.9707 382.274 58.944 380.738 56.384C379.244 53.824 378.498 50.88 378.498 47.552C378.498 44.9067 378.924 42.496 379.778 40.32C380.631 38.144 381.804 36.2667 383.298 34.688C384.834 33.0667 386.647 31.8293 388.738 30.976C390.871 30.08 393.175 29.632 395.65 29.632C397.826 29.632 399.852 30.0587 401.73 30.912C403.607 31.7227 405.228 32.8533 406.594 34.304C408.002 35.7547 409.068 37.4827 409.794 39.488C410.562 41.4507 410.924 43.6053 410.882 45.952L410.818 48.768H383.362L381.89 43.52H405.122L404.162 44.608V43.072C404.034 41.664 403.564 40.4053 402.754 39.296C401.943 38.1867 400.919 37.312 399.682 36.672C398.444 36.032 397.1 35.712 395.65 35.712C393.346 35.712 391.404 36.16 389.826 37.056C388.247 37.9093 387.052 39.1893 386.242 40.896C385.431 42.56 385.026 44.6293 385.026 47.104C385.026 49.4507 385.516 51.4987 386.498 53.248C387.479 54.9547 388.866 56.2773 390.658 57.216C392.45 58.1547 394.519 58.624 396.866 58.624C398.53 58.624 400.066 58.3467 401.474 57.792C402.924 57.2373 404.482 56.2347 406.146 54.784L409.474 59.456C408.45 60.48 407.191 61.376 405.698 62.144C404.247 62.912 402.69 63.5307 401.026 64C399.404 64.4267 397.804 64.64 396.226 64.64ZM428.429 64L414.221 30.4H421.325L431.565 55.552L430.349 56.128L441.293 30.4H448.076L433.165 64H428.429ZM468.851 64.64C465.395 64.64 462.323 63.9147 459.635 62.464C456.989 60.9707 454.899 58.944 453.363 56.384C451.869 53.824 451.123 50.88 451.123 47.552C451.123 44.9067 451.549 42.496 452.403 40.32C453.256 38.144 454.429 36.2667 455.923 34.688C457.459 33.0667 459.272 31.8293 461.363 30.976C463.496 30.08 465.8 29.632 468.275 29.632C470.451 29.632 472.477 30.0587 474.355 30.912C476.232 31.7227 477.853 32.8533 479.219 34.304C480.627 35.7547 481.693 37.4827 482.419 39.488C483.187 41.4507 483.549 43.6053 483.507 45.952L483.443 48.768H455.987L454.515 43.52H477.747L476.787 44.608V43.072C476.659 41.664 476.189 40.4053 475.379 39.296C474.568 38.1867 473.544 37.312 472.307 36.672C471.069 36.032 469.725 35.712 468.275 35.712C465.971 35.712 464.029 36.16 462.451 37.056C460.872 37.9093 459.677 39.1893 458.867 40.896C458.056 42.56 457.651 44.6293 457.651 47.104C457.651 49.4507 458.141 51.4987 459.123 53.248C460.104 54.9547 461.491 56.2773 463.283 57.216C465.075 58.1547 467.144 58.624 469.491 58.624C471.155 58.624 472.691 58.3467 474.099 57.792C475.549 57.2373 477.107 56.2347 478.771 54.784L482.099 59.456C481.075 60.48 479.816 61.376 478.323 62.144C476.872 62.912 475.315 63.5307 473.651 64C472.029 64.4267 470.429 64.64 468.851 64.64ZM490.799 64V16.64H497.391V64H490.799ZM521.212 64.64C517.927 64.64 514.983 63.8933 512.38 62.4C509.82 60.864 507.793 58.7947 506.3 56.192C504.807 53.5467 504.06 50.5387 504.06 47.168C504.06 43.7973 504.807 40.8107 506.3 38.208C507.793 35.5627 509.82 33.4933 512.38 32C514.983 30.464 517.927 29.696 521.212 29.696C524.455 29.696 527.356 30.464 529.916 32C532.519 33.4933 534.567 35.5627 536.06 38.208C537.553 40.8107 538.3 43.7973 538.3 47.168C538.3 50.5387 537.553 53.5467 536.06 56.192C534.567 58.7947 532.519 60.864 529.916 62.4C527.356 63.8933 524.455 64.64 521.212 64.64ZM521.212 58.624C523.217 58.624 525.009 58.1333 526.588 57.152C528.167 56.128 529.404 54.7627 530.3 53.056C531.196 51.3067 531.623 49.344 531.58 47.168C531.623 44.9493 531.196 42.9867 530.3 41.28C529.404 39.5307 528.167 38.1653 526.588 37.184C525.009 36.2027 523.217 35.712 521.212 35.712C519.207 35.712 517.393 36.224 515.772 37.248C514.193 38.2293 512.956 39.5947 512.06 41.344C511.164 43.0507 510.737 44.992 510.78 47.168C510.737 49.344 511.164 51.3067 512.06 53.056C512.956 54.7627 514.193 56.128 515.772 57.152C517.393 58.1333 519.207 58.624 521.212 58.624ZM545.483 78.08V30.4H552.139V38.08L551.115 37.504C551.371 36.224 552.096 35.008 553.291 33.856C554.486 32.6613 555.936 31.7013 557.643 30.976C559.392 30.208 561.184 29.824 563.019 29.824C566.048 29.824 568.736 30.5707 571.083 32.064C573.43 33.5573 575.286 35.6053 576.651 38.208C578.016 40.8107 578.699 43.7973 578.699 47.168C578.699 50.496 578.016 53.4827 576.651 56.128C575.328 58.7307 573.494 60.8 571.147 62.336C568.8 63.8293 566.155 64.576 563.211 64.576C561.248 64.576 559.35 64.192 557.515 63.424C555.68 62.6133 554.123 61.5893 552.843 60.352C551.563 59.1147 550.774 57.8347 550.475 56.512L552.139 55.616V78.08H545.483ZM562.123 58.496C564.086 58.496 565.835 58.0053 567.371 57.024C568.907 56.0427 570.123 54.6987 571.019 52.992C571.915 51.2853 572.363 49.344 572.363 47.168C572.363 44.992 571.915 43.072 571.019 41.408C570.166 39.7013 568.971 38.3573 567.435 37.376C565.899 36.3947 564.128 35.904 562.123 35.904C560.118 35.904 558.347 36.3947 556.811 37.376C555.275 38.3147 554.059 39.6373 553.163 41.344C552.267 43.0507 551.819 44.992 551.819 47.168C551.819 49.344 552.267 51.2853 553.163 52.992C554.059 54.6987 555.275 56.0427 556.811 57.024C558.347 58.0053 560.118 58.496 562.123 58.496ZM601.538 64.64C598.082 64.64 595.01 63.9147 592.322 62.464C589.677 60.9707 587.586 58.944 586.05 56.384C584.557 53.824 583.81 50.88 583.81 47.552C583.81 44.9067 584.237 42.496 585.09 40.32C585.943 38.144 587.117 36.2667 588.61 34.688C590.146 33.0667 591.959 31.8293 594.05 30.976C596.183 30.08 598.487 29.632 600.962 29.632C603.138 29.632 605.165 30.0587 607.042 30.912C608.919 31.7227 610.541 32.8533 611.906 34.304C613.314 35.7547 614.381 37.4827 615.106 39.488C615.874 41.4507 616.237 43.6053 616.194 45.952L616.13 48.768H588.674L587.202 43.52H610.434L609.474 44.608V43.072C609.346 41.664 608.877 40.4053 608.066 39.296C607.255 38.1867 606.231 37.312 604.994 36.672C603.757 36.032 602.413 35.712 600.962 35.712C598.658 35.712 596.717 36.16 595.138 37.056C593.559 37.9093 592.365 39.1893 591.554 40.896C590.743 42.56 590.338 44.6293 590.338 47.104C590.338 49.4507 590.829 51.4987 591.81 53.248C592.791 54.9547 594.178 56.2773 595.97 57.216C597.762 58.1547 599.831 58.624 602.178 58.624C603.842 58.624 605.378 58.3467 606.786 57.792C608.237 57.2373 609.794 56.2347 611.458 54.784L614.786 59.456C613.762 60.48 612.503 61.376 611.01 62.144C609.559 62.912 608.002 63.5307 606.338 64C604.717 64.4267 603.117 64.64 601.538 64.64ZM623.358 64V30.4H630.014V40.96L629.374 38.4C629.843 36.7787 630.633 35.3067 631.742 33.984C632.894 32.6613 634.195 31.616 635.646 30.848C637.139 30.08 638.675 29.696 640.254 29.696C640.979 29.696 641.662 29.76 642.302 29.888C642.985 30.016 643.518 30.1653 643.902 30.336L642.174 37.504C641.662 37.2907 641.086 37.12 640.446 36.992C639.849 36.8213 639.251 36.736 638.654 36.736C637.502 36.736 636.393 36.9707 635.326 37.44C634.302 37.8667 633.385 38.4853 632.574 39.296C631.806 40.064 631.187 40.9813 630.718 42.048C630.249 43.072 630.014 44.2027 630.014 45.44V64H623.358Z" fill="white"/>
<path d="M163.852 132.448H155.716L156.22 130.504H163.276L163.852 132.448ZM159.964 121.936L154.06 139H151.576L159.856 116.176H160.144L168.424 139H165.832L159.964 121.936ZM196.576 139.396C195.904 139.396 195.268 139.288 194.668 139.072C194.068 138.88 193.516 138.592 193.012 138.208C192.532 137.824 192.1 137.368 191.716 136.84L190.816 139H189.16V115.06H191.752H192.112V115.312C191.968 115.456 191.872 115.612 191.824 115.78C191.8 115.948 191.788 116.236 191.788 116.644V125.068C192.052 124.636 192.364 124.24 192.724 123.88C193.084 123.52 193.48 123.208 193.912 122.944C194.344 122.68 194.8 122.488 195.28 122.368C195.76 122.224 196.228 122.152 196.684 122.152C197.692 122.152 198.604 122.332 199.42 122.692C200.26 123.028 200.98 123.556 201.58 124.276C202.18 124.972 202.636 125.848 202.948 126.904C203.284 127.96 203.452 129.196 203.452 130.612C203.452 132.076 203.26 133.36 202.876 134.464C202.492 135.568 201.964 136.492 201.292 137.236C200.644 137.956 199.912 138.496 199.096 138.856C198.28 139.216 197.44 139.396 196.576 139.396ZM196.252 137.092C196.828 137.092 197.38 136.984 197.908 136.768C198.46 136.552 198.952 136.204 199.384 135.724C199.816 135.22 200.152 134.56 200.392 133.744C200.656 132.928 200.788 131.932 200.788 130.756C200.788 129.676 200.68 128.74 200.464 127.948C200.248 127.132 199.936 126.46 199.528 125.932C199.144 125.404 198.676 125.02 198.124 124.78C197.572 124.516 196.972 124.384 196.324 124.384C195.436 124.384 194.644 124.66 193.948 125.212C193.276 125.74 192.748 126.496 192.364 127.48C191.98 128.44 191.788 129.556 191.788 130.828C191.788 131.764 191.872 132.616 192.04 133.384C192.208 134.152 192.46 134.812 192.796 135.364C193.156 135.916 193.612 136.348 194.164 136.66C194.74 136.948 195.436 137.092 196.252 137.092ZM208.6 139V136.912H212.812V124.636H208.816V122.548H215.404V136.912H219.256V139H208.6ZM213.964 119.092C213.46 119.092 213.028 118.912 212.668 118.552C212.308 118.192 212.128 117.76 212.128 117.256C212.128 116.728 212.296 116.284 212.632 115.924C212.992 115.564 213.436 115.384 213.964 115.384C214.468 115.384 214.9 115.576 215.26 115.96C215.644 116.32 215.836 116.752 215.836 117.256C215.836 117.76 215.644 118.192 215.26 118.552C214.9 118.912 214.468 119.092 213.964 119.092ZM233.764 139.252C232.708 139.252 231.844 139.072 231.172 138.712C230.5 138.352 229.984 137.8 229.624 137.056C229.264 136.288 229.024 135.328 228.904 134.176C228.808 133.024 228.784 131.656 228.832 130.072L229.264 118.336L231.964 118.012L232.324 117.976L232.36 118.228C232.24 118.396 232.132 118.564 232.036 118.732C231.964 118.9 231.904 119.188 231.856 119.596L231.532 123.664L231.64 124.312L231.388 130.252C231.316 132.076 231.364 133.492 231.532 134.5C231.7 135.484 232 136.168 232.432 136.552C232.864 136.912 233.44 137.092 234.16 137.092C234.952 137.092 235.648 136.936 236.248 136.624C236.872 136.312 237.52 135.916 238.192 135.436L238.984 137.488C238.168 138.088 237.328 138.532 236.464 138.82C235.6 139.108 234.7 139.252 233.764 139.252ZM225.52 122.548H237.364V124.672H225.52V122.548ZM268 139.288C266.512 139.288 265.192 138.928 264.04 138.208C262.912 137.464 262.024 136.456 261.376 135.184C260.728 133.888 260.404 132.412 260.404 130.756C260.404 129.076 260.728 127.6 261.376 126.328C262.024 125.032 262.912 124.024 264.04 123.304C265.192 122.56 266.512 122.188 268 122.188C269.488 122.188 270.796 122.56 271.924 123.304C273.076 124.024 273.976 125.032 274.624 126.328C275.272 127.6 275.596 129.076 275.596 130.756C275.596 132.412 275.272 133.888 274.624 135.184C273.976 136.456 273.076 137.464 271.924 138.208C270.796 138.928 269.488 139.288 268 139.288ZM268 137.128C268.96 137.128 269.8 136.852 270.52 136.3C271.24 135.748 271.804 134.992 272.212 134.032C272.644 133.072 272.86 131.968 272.86 130.72C272.86 129.472 272.644 128.368 272.212 127.408C271.804 126.448 271.24 125.704 270.52 125.176C269.8 124.624 268.96 124.348 268 124.348C267.064 124.348 266.224 124.624 265.48 125.176C264.76 125.704 264.184 126.448 263.752 127.408C263.344 128.368 263.14 129.472 263.14 130.72C263.14 131.968 263.344 133.072 263.752 134.032C264.184 134.992 264.76 135.748 265.48 136.3C266.224 136.852 267.064 137.128 268 137.128ZM282.832 124.6H279.268V122.548H282.832V121.18C282.832 119.716 283.084 118.516 283.588 117.58C284.116 116.644 284.836 115.96 285.748 115.528C286.66 115.072 287.704 114.844 288.88 114.844C289.912 114.844 290.872 115.036 291.76 115.42C292.672 115.78 293.428 116.344 294.028 117.112L292.66 119.02L292.444 119.308L292.228 119.164C292.204 118.972 292.156 118.78 292.084 118.588C292.012 118.396 291.844 118.156 291.58 117.868C291.196 117.532 290.812 117.292 290.428 117.148C290.044 117.004 289.552 116.932 288.952 116.932C288.256 116.932 287.632 117.076 287.08 117.364C286.528 117.628 286.096 118.072 285.784 118.696C285.472 119.296 285.316 120.124 285.316 121.18V122.548H290.716V124.6H285.316V139H282.832V124.6ZM321.568 139.396C320.992 139.396 320.5 139.192 320.092 138.784C319.684 138.376 319.48 137.896 319.48 137.344C319.48 136.792 319.684 136.312 320.092 135.904C320.5 135.496 320.992 135.292 321.568 135.292C322.12 135.292 322.6 135.496 323.008 135.904C323.416 136.312 323.62 136.792 323.62 137.344C323.62 137.896 323.416 138.376 323.008 138.784C322.6 139.192 322.12 139.396 321.568 139.396ZM332.8 116.572H335.248L344.68 133.204V116.572H347.056H347.416V116.824C347.272 116.968 347.176 117.124 347.128 117.292C347.104 117.46 347.092 117.748 347.092 118.156V139H345.112L335.212 121.36V139H332.8V116.572ZM351.124 139V116.536H364.876V118.768H353.5V126.148H362.896V128.452H353.5V136.768H364.768V139H351.124ZM374.488 139V118.804H368.116V116.536H383.668V118.804H377.044V139H374.488ZM408.832 124.6H405.268V122.548H408.832V121.18C408.832 119.716 409.084 118.516 409.588 117.58C410.116 116.644 410.836 115.96 411.748 115.528C412.66 115.072 413.704 114.844 414.88 114.844C415.912 114.844 416.872 115.036 417.76 115.42C418.672 115.78 419.428 116.344 420.028 117.112L418.66 119.02L418.444 119.308L418.228 119.164C418.204 118.972 418.156 118.78 418.084 118.588C418.012 118.396 417.844 118.156 417.58 117.868C417.196 117.532 416.812 117.292 416.428 117.148C416.044 117.004 415.552 116.932 414.952 116.932C414.256 116.932 413.632 117.076 413.08 117.364C412.528 117.628 412.096 118.072 411.784 118.696C411.472 119.296 411.316 120.124 411.316 121.18V122.548H416.716V124.6H411.316V139H408.832V124.6ZM430 139.288C428.512 139.288 427.192 138.928 426.04 138.208C424.912 137.464 424.024 136.456 423.376 135.184C422.728 133.888 422.404 132.412 422.404 130.756C422.404 129.076 422.728 127.6 423.376 126.328C424.024 125.032 424.912 124.024 426.04 123.304C427.192 122.56 428.512 122.188 430 122.188C431.488 122.188 432.796 122.56 433.924 123.304C435.076 124.024 435.976 125.032 436.624 126.328C437.272 127.6 437.596 129.076 437.596 130.756C437.596 132.412 437.272 133.888 436.624 135.184C435.976 136.456 435.076 137.464 433.924 138.208C432.796 138.928 431.488 139.288 430 139.288ZM430 137.128C430.96 137.128 431.8 136.852 432.52 136.3C433.24 135.748 433.804 134.992 434.212 134.032C434.644 133.072 434.86 131.968 434.86 130.72C434.86 129.472 434.644 128.368 434.212 127.408C433.804 126.448 433.24 125.704 432.52 125.176C431.8 124.624 430.96 124.348 430 124.348C429.064 124.348 428.224 124.624 427.48 125.176C426.76 125.704 426.184 126.448 425.752 127.408C425.344 128.368 425.14 129.472 425.14 130.72C425.14 131.968 425.344 133.072 425.752 134.032C426.184 134.992 426.76 135.748 427.48 136.3C428.224 136.852 429.064 137.128 430 137.128ZM443.284 122.548H445.984L445.876 127.336L445.552 126.796C445.696 126.052 445.948 125.392 446.308 124.816C446.668 124.24 447.1 123.76 447.604 123.376C448.108 122.968 448.66 122.668 449.26 122.476C449.86 122.26 450.484 122.152 451.132 122.152C451.996 122.152 452.788 122.308 453.508 122.62C454.252 122.908 454.912 123.352 455.488 123.952L454.336 125.968L454.192 126.292L453.94 126.148C453.892 125.956 453.82 125.776 453.724 125.608C453.628 125.44 453.424 125.236 453.112 124.996C452.728 124.756 452.368 124.6 452.032 124.528C451.72 124.432 451.36 124.384 450.952 124.384C450.352 124.384 449.752 124.504 449.152 124.744C448.552 124.96 448 125.308 447.496 125.788C447.016 126.268 446.632 126.88 446.344 127.624C446.056 128.368 445.912 129.256 445.912 130.288V139.036H443.284V122.548ZM479.572 145.264C478.804 145.264 478.096 145.144 477.448 144.904C476.824 144.664 476.272 144.316 475.792 143.86L476.908 142.096L477.124 141.772L477.34 141.916C477.388 142.108 477.472 142.264 477.592 142.384C477.712 142.528 477.94 142.708 478.276 142.924C478.492 142.996 478.72 143.044 478.96 143.068C479.2 143.116 479.452 143.14 479.716 143.14C480.364 143.14 480.904 142.984 481.336 142.672C481.792 142.36 482.188 141.88 482.524 141.232C482.86 140.584 483.184 139.768 483.496 138.784L486.628 129.1C486.988 127.996 487.336 126.904 487.672 125.824C488.008 124.744 488.236 123.652 488.356 122.548H490.948C490.78 123.652 490.516 124.768 490.156 125.896C489.796 127.024 489.412 128.152 489.004 129.28L484.9 140.872C484.324 142.48 483.58 143.608 482.668 144.256C481.78 144.928 480.748 145.264 479.572 145.264ZM476.656 122.548H479.356L484.684 136.264L483.532 139.468L476.656 122.548ZM502 139.288C500.512 139.288 499.192 138.928 498.04 138.208C496.912 137.464 496.024 136.456 495.376 135.184C494.728 133.888 494.404 132.412 494.404 130.756C494.404 129.076 494.728 127.6 495.376 126.328C496.024 125.032 496.912 124.024 498.04 123.304C499.192 122.56 500.512 122.188 502 122.188C503.488 122.188 504.796 122.56 505.924 123.304C507.076 124.024 507.976 125.032 508.624 126.328C509.272 127.6 509.596 129.076 509.596 130.756C509.596 132.412 509.272 133.888 508.624 135.184C507.976 136.456 507.076 137.464 505.924 138.208C504.796 138.928 503.488 139.288 502 139.288ZM502 137.128C502.96 137.128 503.8 136.852 504.52 136.3C505.24 135.748 505.804 134.992 506.212 134.032C506.644 133.072 506.86 131.968 506.86 130.72C506.86 129.472 506.644 128.368 506.212 127.408C505.804 126.448 505.24 125.704 504.52 125.176C503.8 124.624 502.96 124.348 502 124.348C501.064 124.348 500.224 124.624 499.48 125.176C498.76 125.704 498.184 126.448 497.752 127.408C497.344 128.368 497.14 129.472 497.14 130.72C497.14 131.968 497.344 133.072 497.752 134.032C498.184 134.992 498.76 135.748 499.48 136.3C500.224 136.852 501.064 137.128 502 137.128ZM518.956 139.396C518.308 139.396 517.696 139.3 517.12 139.108C516.544 138.916 516.016 138.628 515.536 138.244C515.08 137.836 514.684 137.332 514.348 136.732C514.012 136.132 513.748 135.412 513.556 134.572C513.388 133.732 513.304 132.784 513.304 131.728L513.34 122.548H515.86V131.728C515.86 132.76 515.956 133.636 516.148 134.356C516.34 135.076 516.604 135.652 516.94 136.084C517.3 136.516 517.708 136.828 518.164 137.02C518.62 137.212 519.1 137.308 519.604 137.308C520.18 137.308 520.732 137.2 521.26 136.984C521.788 136.744 522.256 136.396 522.664 135.94C523.096 135.484 523.432 134.896 523.672 134.176C523.912 133.456 524.032 132.604 524.032 131.62V122.548H526.552V136.444C526.552 136.876 526.564 137.308 526.588 137.74C526.636 138.148 526.744 138.568 526.912 139H524.428C524.308 138.712 524.224 138.436 524.176 138.172C524.128 137.884 524.092 137.596 524.068 137.308C524.068 137.02 524.068 136.744 524.068 136.48C523.804 136.936 523.492 137.344 523.132 137.704C522.772 138.064 522.364 138.376 521.908 138.64C521.476 138.88 521.008 139.06 520.504 139.18C520.024 139.324 519.508 139.396 518.956 139.396Z" fill="white"/>
<rect y="86" width="679" height="7" fill="#D9D9D9"/>
<rect y="86" width="225" height="7" fill="black"/>
</svg>
